<svg width="480" height="512" viewBox="0 0 480 512" fill="none" xmlns="http://www.w3.org/2000/svg">
<path d="M4.04 317.3C2 317.3 0 315.8 0 313.3V150.5C0 148.149 1.91 146.488 4.001 146.488C4.6892 146.488 5.397 146.668 6.063 147.063L82.683 192.163L7.403 314.463C6.59 316.8 5.31 317.3 4.04 317.3ZM215.4 405.2L7.2 383.14C2.93 382.658 0.0769997 379.023 0.0769997 375.145C0.0769997 373.744 0.449499 372.311 1.262 370.984L106.7 215.1L215.4 405.2ZM15.1 420.1C15.1 418.061 16.608 416.032 19.03 416.032C19.1954 416.032 19.3651 416.041 19.5389 416.061L223.139 438.371V504.031C223.1 508.6 220.2 512 216 512C214.887 512 213.745 511.761 212.637 511.243L18.25 423.6C16.69 422.8 15.1 421.4 15.1 420.1ZM17.94 117.1C16.651 116.336 16.002 115.012 16.002 113.683C16.002 112.402 16.6039 111.116 17.815 110.319L168.615 11.729C169.1 10.98 171.3 10.64 172.6 10.64C176.92 10.64 180.603 14.361 180.603 18.662C180.603 20.041 180.224 21.48 179.366 22.876L99.5 165.8L17.94 117.1ZM130.8 175.1L226.39 6.7C229.5 2.53 234.7 0 239.1 0C243.5 0 249.6 2.53 252.72 7.624L348.31 176.024H130.8V175.1ZM340.4 207.1L240 382.8L139.6 207.1H340.4ZM460.1 415.1C462.522 415.1 464.03 417.129 464.03 419.168C464.03 420.546 463.341 421.929 461.778 422.692L267.378 510.352C266.275 510.861 265.137 511.096 264.028 511.096C259.828 511.096 256.034 507.725 256.034 503.102V437.412L459.634 415.132C459.7 416 459.9 415.1 460.1 415.1ZM478.8 370.9C479.6 372.3 480 373.7 480 375.1C480 378.972 477.159 382.599 472.872 383.08L264.672 405.14L373.272 215.04L478.8 370.9ZM300.6 22.87C299.742 21.475 299.363 20.036 299.363 18.656C299.363 14.355 303.046 10.634 307.366 10.634C308.674 10.634 310.041 10.9751 311.381 11.744L462.181 110.334C463.392 111.131 463.994 112.41 463.994 113.687C463.994 115.012 463.345 116.336 462.056 117.116L380.5 165.8L300.6 22.87ZM475.1 146.5C477.191 146.5 479.101 148.161 479.101 150.512V313.312C479.101 315.795 477.085 317.318 475.048 317.318C473.778 317.318 472.499 316.726 471.695 315.406L396.415 193.106L473.035 148.006C474.6 146.7 475.3 146.5 475.1 146.5Z" fill="url(#paint0_radial_3_10)"/>
<defs>
<radialGradient id="paint0_radial_3_10" cx="0" cy="0" r="1" gradientUnits="userSpaceOnUse" gradientTransform="translate(240 256) rotate(90) scale(256 240)">
<stop stop-color="#180E17"/>
<stop offset="1" stop-color="#FA1E4E"/>
</radialGradient>
</defs>
</svg>
