<?xml version="1.0" standalone="no"?>
<!DOCTYPE svg PUBLIC "-//W3C//DTD SVG 20010904//EN"
 "http://www.w3.org/TR/2001/REC-SVG-20010904/DTD/svg10.dtd">
<svg version="1.0" xmlns="http://www.w3.org/2000/svg"
 width="1024.000000pt" height="1024.000000pt" viewBox="0 0 1024.000000 1024.000000"
 preserveAspectRatio="xMidYMid meet">
<metadata>
Created by potrace 1.14, written by Peter Selinger 2001-2017
</metadata>
<g transform="translate(0.000000,1024.000000) scale(0.100000,-0.100000)"
fill="#000000" stroke="none">
<path d="M5030 10231 c-91 -28 -166 -92 -218 -186 -49 -91 -99 -179 -172 -305
-20 -36 -48 -85 -62 -110 -51 -91 -70 -125 -78 -135 -4 -5 -21 -35 -37 -65
-34 -61 -41 -75 -158 -280 -45 -80 -92 -161 -104 -180 -11 -19 -29 -52 -38
-72 -10 -21 -21 -38 -25 -38 -5 0 -8 -5 -8 -11 0 -6 -24 -52 -54 -102 -29 -51
-70 -123 -91 -162 -21 -38 -42 -76 -48 -82 -10 -14 -55 -95 -84 -153 -10 -19
-21 -37 -24 -40 -3 -3 -19 -30 -36 -60 -53 -95 -176 -314 -310 -550 -11 -19
-41 -70 -67 -113 -25 -43 -46 -80 -46 -82 0 -2 -43 -79 -95 -170 -52 -92 -95
-171 -95 -176 0 -5 -3 -9 -8 -9 -4 0 -13 -15 -21 -32 -8 -18 -17 -35 -20 -38
-3 -3 -15 -21 -25 -40 -75 -138 -90 -165 -98 -168 -4 -2 -8 -12 -8 -22 0 -10
-4 -20 -8 -22 -12 -5 -52 -77 -52 -95 0 -9 6 -13 15 -9 8 3 15 1 15 -4 0 -6 9
-6 25 0 14 5 25 6 25 2 0 -9 47 -8 56 1 4 3 15 2 25 -3 12 -7 20 -7 24 0 4 6
12 7 18 3 13 -8 86 -8 94 1 3 2 15 1 28 -4 14 -5 26 -5 33 2 6 6 12 6 16 -1 5
-8 13 -8 27 -1 12 7 19 7 19 1 0 -7 8 -7 23 -2 12 5 31 5 42 1 11 -4 25 -3 32
2 7 6 14 5 18 -2 3 -6 11 -8 16 -4 15 9 69 11 75 3 2 -4 18 -4 34 1 17 5 30 6
30 2 0 -4 25 -7 55 -7 30 0 55 3 55 7 0 4 11 3 25 -2 17 -6 25 -6 25 1 0 6 6
7 17 0 10 -5 26 -5 40 0 13 5 23 5 23 1 0 -4 25 -7 55 -7 30 0 55 3 55 7 0 4
11 3 25 -2 16 -6 25 -6 25 1 0 6 6 6 18 0 11 -6 24 -6 34 0 9 5 19 6 22 1 5
-8 85 -7 93 2 3 3 15 1 28 -4 14 -5 26 -5 33 2 6 6 12 6 16 -1 5 -8 13 -8 27
-1 12 7 19 7 19 1 0 -7 8 -7 23 -2 12 5 31 5 42 1 11 -4 25 -3 32 2 7 5 14 5
18 -2 4 -7 12 -7 27 1 14 7 23 8 30 1 7 -7 19 -7 34 -2 15 6 24 6 24 0 0 -6
10 -6 26 0 14 6 23 6 20 2 -5 -9 69 -6 84 3 6 3 10 3 10 -2 0 -4 13 -8 29 -8
16 0 27 3 24 7 -2 5 7 4 21 -2 16 -6 27 -6 31 1 4 6 13 6 23 0 10 -6 23 -6 34
0 10 6 19 5 23 -1 4 -7 12 -7 25 0 10 6 21 7 23 3 6 -10 59 -9 75 1 6 3 13 2
17 -4 4 -7 12 -7 25 0 10 6 21 7 24 2 5 -8 85 -7 93 2 3 3 15 1 28 -4 14 -5
26 -5 33 2 6 6 12 6 16 -1 5 -8 13 -8 27 -1 12 7 19 7 19 1 0 -7 8 -7 23 -2
12 5 31 5 42 1 11 -4 25 -3 32 2 7 6 14 5 18 -2 3 -6 11 -8 16 -4 15 9 69 11
75 3 2 -4 18 -4 34 1 17 5 30 6 30 2 0 -4 25 -7 55 -7 30 0 55 3 55 7 0 4 11
3 25 -2 17 -6 25 -6 25 1 0 6 6 7 17 0 10 -5 26 -5 40 0 13 5 23 5 23 1 0 -4
25 -7 55 -7 30 0 55 3 55 7 0 4 11 3 25 -2 17 -6 25 -6 25 1 0 7 6 7 17 0 11
-6 24 -6 35 0 9 5 19 6 22 1 5 -8 85 -7 93 2 3 3 15 1 28 -4 14 -5 26 -5 33 2
6 6 12 6 16 -1 5 -8 13 -8 27 -1 12 7 19 7 19 1 0 -7 8 -7 23 -2 12 5 31 5 42
1 11 -4 25 -3 32 2 7 5 14 5 18 -2 4 -7 12 -7 26 0 12 7 19 7 19 1 0 -7 8 -7
23 -2 12 5 31 5 42 1 11 -4 25 -3 32 2 7 5 14 5 18 -2 4 -7 12 -7 26 0 12 7
19 7 19 1 0 -7 8 -7 23 -2 12 5 31 5 42 1 11 -4 25 -3 32 2 7 6 14 5 18 -2 3
-6 11 -8 16 -4 15 9 69 11 75 3 2 -4 18 -4 34 1 17 5 30 6 30 2 0 -4 25 -7 55
-7 30 0 55 3 55 7 0 4 11 3 25 -2 17 -6 25 -6 25 1 0 6 5 7 11 4 15 -10 79
-12 79 -3 0 4 11 3 25 -2 15 -6 26 -6 30 0 4 6 13 7 23 1 11 -6 24 -6 34 0 11
6 19 6 23 -1 4 -7 13 -7 26 0 14 8 19 7 19 -2 0 -8 3 -9 10 -2 8 8 1 29 -21
70 -18 32 -35 64 -39 69 -4 6 -19 31 -34 58 -53 95 -83 149 -278 492 -109 193
-203 357 -208 365 -6 8 -13 23 -16 33 -4 9 -10 17 -15 17 -5 0 -9 5 -9 10 0 6
-28 58 -61 118 -34 59 -74 130 -89 157 -14 28 -38 68 -52 90 -13 22 -35 61
-48 88 -13 26 -27 47 -32 47 -4 0 -7 3 -6 8 2 4 -8 25 -21 47 -14 22 -34 58
-46 80 -12 22 -31 57 -43 78 -21 35 -32 55 -83 145 -12 20 -33 57 -47 82 -59
107 -173 306 -182 320 -6 8 -13 22 -17 30 -4 8 -35 64 -70 123 -35 60 -63 110
-63 112 0 2 -19 36 -43 77 -24 40 -46 80 -50 88 -4 8 -17 31 -28 50 -12 19
-32 53 -44 75 -12 22 -39 71 -61 108 -21 38 -51 90 -65 115 -14 26 -35 63 -46
82 -11 19 -35 61 -53 94 -68 120 -162 184 -279 190 -36 2 -77 1 -91 -3z"/>
<path d="M3738 10025 c-3 -4 -12 -7 -20 -9 -7 -1 -74 -42 -148 -90 -74 -49
-162 -106 -195 -127 -33 -22 -64 -42 -70 -47 -17 -12 -69 -47 -80 -52 -6 -3
-87 -55 -180 -117 -94 -62 -228 -150 -300 -197 -71 -47 -137 -90 -145 -95 -8
-6 -49 -32 -90 -59 -41 -27 -129 -85 -195 -128 -66 -43 -127 -83 -136 -89 -47
-29 -162 -105 -218 -142 -35 -24 -68 -43 -72 -43 -5 0 -9 -5 -9 -11 0 -5 -4
-7 -10 -4 -5 3 -10 2 -10 -3 0 -5 -12 -15 -27 -23 -16 -8 -30 -16 -33 -19 -10
-11 -122 -83 -149 -96 -8 -4 -22 -14 -30 -21 -33 -29 -241 -160 -246 -155 -3
3 -5 1 -5 -4 0 -5 -22 -23 -50 -39 -27 -16 -50 -33 -50 -38 0 -4 -4 -5 -10 -2
-5 3 -10 1 -10 -4 0 -6 -7 -11 -15 -11 -8 0 -15 -4 -15 -8 0 -5 -10 -14 -22
-21 -31 -16 -55 -31 -107 -66 -24 -17 -51 -35 -60 -40 -9 -6 -68 -44 -131 -85
-63 -42 -143 -94 -177 -115 -34 -22 -66 -49 -71 -60 -9 -19 -9 -82 -1 -89 2
-2 119 -72 259 -156 140 -84 269 -161 285 -172 17 -10 41 -24 55 -31 14 -6 51
-29 83 -50 31 -20 59 -37 62 -37 8 0 109 -63 123 -77 7 -7 17 -13 22 -13 4 0
71 -38 149 -85 77 -47 145 -85 151 -85 5 0 10 -4 10 -10 0 -5 7 -10 15 -10 8
0 15 -4 15 -8 0 -5 16 -14 35 -22 19 -8 35 -17 35 -22 0 -4 4 -8 9 -8 5 0 46
-22 90 -50 44 -27 85 -50 91 -50 5 0 10 -4 10 -10 0 -5 4 -10 9 -10 6 0 40
-19 77 -42 l67 -42 23 29 c12 16 21 32 18 36 -2 4 0 9 4 11 7 2 75 120 197
343 15 28 35 64 45 80 22 37 61 108 112 202 22 40 44 75 49 79 5 3 9 14 9 24
0 10 3 20 8 22 6 3 119 200 212 373 18 33 36 65 40 70 4 6 23 39 42 75 19 36
64 117 100 180 103 183 120 213 136 245 8 17 23 41 32 55 10 14 33 54 52 90
54 100 100 184 108 195 4 6 23 39 42 75 46 84 82 150 128 230 21 36 52 92 70
125 19 33 71 128 117 210 65 118 83 158 83 190 0 50 -35 113 -75 136 -33 20
-106 35 -117 24z"/>
<path d="M6398 10009 c-55 -29 -88 -82 -88 -144 0 -28 4 -55 9 -60 4 -6 28
-46 51 -90 44 -80 62 -113 101 -182 96 -168 339 -608 339 -615 0 -4 4 -8 9 -8
5 0 14 -12 20 -27 5 -16 26 -55 45 -88 19 -33 51 -91 72 -130 20 -38 41 -71
45 -73 5 -2 9 -8 9 -13 0 -5 20 -44 44 -87 23 -42 58 -104 76 -137 18 -33 42
-75 52 -92 10 -18 26 -48 36 -65 10 -18 34 -60 52 -93 18 -33 50 -90 71 -127
22 -36 39 -71 39 -76 0 -6 3 -12 8 -14 4 -1 20 -28 36 -58 16 -30 34 -58 39
-61 5 -3 7 -8 6 -10 -4 -5 80 -160 99 -181 8 -10 11 -18 7 -18 -4 0 -2 -8 7
-17 8 -10 25 -39 39 -65 13 -27 27 -48 31 -48 5 0 8 -7 8 -16 0 -8 11 -32 25
-52 14 -20 25 -40 25 -45 0 -4 11 -24 24 -45 41 -66 166 -291 166 -300 0 -5 9
-17 20 -27 19 -17 22 -16 85 24 37 22 68 41 70 41 2 0 27 16 56 35 30 19 59
35 66 35 7 0 13 5 13 10 0 6 7 10 15 10 8 0 15 4 15 8 0 4 12 13 28 20 15 6
41 21 57 32 17 11 37 23 45 27 41 21 115 68 118 75 2 4 8 8 14 8 5 0 49 24 96
53 48 28 99 58 115 66 15 8 27 18 27 23 0 4 6 8 14 8 7 0 25 9 39 20 15 12 29
21 32 20 3 0 30 15 60 35 31 19 58 35 61 35 3 0 26 14 51 30 24 17 46 30 48
30 3 0 29 16 59 35 30 19 59 35 65 35 5 0 11 4 13 8 2 4 23 19 48 33 76 43
111 64 208 123 51 31 95 56 99 56 3 0 19 14 35 31 26 27 29 36 23 67 -4 20
-10 39 -14 42 -32 22 -529 350 -556 367 -11 7 -27 16 -35 20 -8 4 -24 15 -34
25 -11 10 -26 18 -33 18 -7 0 -13 4 -13 8 0 5 -10 14 -22 21 -54 28 -152 93
-156 104 -2 4 -8 7 -12 7 -5 0 -107 64 -227 143 -120 79 -252 165 -293 192
-41 27 -135 88 -208 137 -74 48 -138 88 -143 88 -5 0 -9 5 -9 10 0 6 -4 10
-10 10 -11 0 -103 62 -108 73 -2 4 -8 7 -13 7 -5 0 -77 45 -159 100 -83 55
-155 100 -160 100 -4 0 -10 3 -12 8 -5 11 -66 52 -78 52 -5 0 -10 5 -10 10 0
6 -4 10 -9 10 -4 0 -55 31 -112 69 -194 128 -260 171 -265 171 -2 0 -13 8 -24
18 -21 17 -76 52 -117 74 -13 6 -23 15 -23 20 0 4 -7 8 -15 8 -8 0 -15 5 -15
10 0 6 -5 10 -10 10 -12 0 -73 41 -78 53 -2 4 -8 7 -13 7 -5 0 -27 11 -47 25
-51 34 -116 39 -164 14z"/>
<path d="M344 7284 l-24 -23 0 -1650 c0 -1212 3 -1657 11 -1675 13 -28 60 -49
87 -39 20 8 32 20 51 53 8 14 49 81 91 150 42 69 83 136 91 150 8 13 20 30 27
38 6 7 12 19 12 27 0 7 4 15 8 17 10 4 102 156 102 168 0 6 4 10 9 10 5 0 16
15 25 33 10 17 30 52 46 77 16 25 38 61 50 80 11 19 31 53 45 75 14 22 28 47
32 55 3 8 9 17 13 20 3 3 85 133 180 290 96 157 177 287 180 290 4 3 9 12 13
20 4 8 17 32 29 52 13 20 43 69 67 109 51 84 86 139 101 156 5 7 10 15 10 18
0 4 36 64 80 134 44 71 80 133 80 140 0 6 3 11 8 11 4 0 26 33 50 73 24 39 61
101 83 136 21 34 39 65 39 68 0 2 7 11 15 19 23 24 19 32 -37 64 -29 17 -62
36 -73 43 -58 36 -91 54 -95 53 -3 0 -25 13 -50 30 -25 17 -65 42 -90 55 -25
13 -47 26 -50 29 -3 3 -16 11 -30 19 -14 8 -86 50 -160 94 -143 84 -179 105
-234 136 -19 11 -54 33 -78 48 -24 15 -56 35 -73 43 -35 18 -241 139 -368 216
-48 30 -90 54 -92 54 -3 0 -23 12 -46 27 -54 35 -105 38 -135 7z"/>
<path d="M9810 7300 c0 -5 -11 -12 -25 -16 -14 -3 -25 -10 -25 -14 0 -4 -13
-13 -30 -20 -16 -7 -30 -15 -30 -19 0 -3 -19 -15 -43 -26 -23 -11 -44 -22 -47
-25 -5 -5 -18 -13 -108 -64 -30 -17 -61 -36 -70 -41 -92 -56 -145 -85 -153
-85 -5 0 -9 -4 -9 -8 0 -4 -19 -18 -42 -30 -60 -31 -105 -57 -123 -72 -8 -7
-15 -9 -15 -4 0 5 -4 4 -8 -2 -4 -6 -29 -23 -57 -39 -27 -16 -58 -35 -67 -43
-10 -8 -18 -12 -18 -9 0 3 -24 -10 -52 -29 -29 -19 -65 -40 -80 -47 -16 -6
-28 -15 -28 -19 0 -5 -4 -8 -10 -8 -5 0 -43 -20 -83 -45 -41 -25 -80 -45 -86
-45 -6 0 -11 -4 -11 -8 0 -4 -19 -18 -42 -30 -56 -29 -92 -50 -153 -88 -27
-17 -71 -43 -98 -58 -43 -25 -46 -29 -35 -49 19 -36 62 -102 71 -108 5 -3 8
-9 8 -13 -1 -7 2 -12 79 -136 29 -47 61 -99 71 -116 9 -17 23 -42 31 -55 7
-13 16 -26 19 -29 6 -5 76 -118 111 -180 22 -38 80 -129 109 -172 11 -15 19
-31 19 -36 0 -4 9 -18 20 -30 12 -12 19 -22 16 -22 -3 0 30 -55 72 -122 43
-68 84 -135 91 -150 8 -16 18 -28 23 -28 4 0 8 -4 8 -10 0 -13 62 -114 72
-118 5 -2 6 -8 2 -13 -3 -5 -1 -9 3 -9 5 0 17 -18 27 -40 10 -22 22 -40 27
-40 5 0 9 -5 9 -11 0 -6 12 -29 28 -52 49 -76 53 -82 58 -99 4 -10 10 -18 15
-18 5 0 9 -4 9 -10 0 -5 25 -48 55 -95 30 -46 55 -89 55 -95 0 -5 5 -10 10
-10 6 0 10 -4 10 -9 0 -12 63 -115 73 -119 4 -2 7 -8 7 -12 0 -11 79 -140 97
-158 7 -7 13 -17 13 -22 0 -9 70 -124 90 -147 6 -7 9 -13 6 -13 -3 0 15 -30
40 -66 24 -37 44 -70 44 -73 0 -4 14 -12 30 -18 39 -15 82 -1 100 31 10 19 12
361 12 1653 -1 895 -1 1638 -1 1651 -1 29 -43 72 -71 72 -11 0 -20 -4 -20 -10z"/>
<path d="M3120 6083 c0 -7 5 -13 12 -13 6 0 8 -3 5 -6 -4 -4 2 -19 12 -33 10
-14 32 -51 48 -81 17 -30 101 -179 188 -330 87 -151 168 -293 180 -315 97
-172 205 -362 212 -370 4 -6 18 -28 30 -50 27 -50 36 -66 177 -313 64 -111
116 -207 116 -211 0 -5 4 -11 8 -13 5 -1 24 -32 44 -68 19 -36 60 -108 90
-160 30 -52 66 -115 80 -140 14 -25 64 -112 112 -194 47 -82 86 -151 86 -152
0 -2 20 -38 45 -80 25 -41 45 -80 45 -85 0 -5 5 -9 10 -9 6 0 10 -4 10 -9 0
-5 33 -67 74 -138 40 -70 84 -148 98 -173 14 -25 48 -85 77 -133 28 -49 51
-93 51 -98 0 -5 5 -9 10 -9 6 0 10 -4 10 -10 0 -5 25 -52 55 -105 30 -52 55
-99 55 -105 0 -5 4 -10 8 -10 5 0 17 -18 27 -40 10 -22 21 -40 25 -40 3 0 16
19 29 42 12 24 26 50 31 58 28 43 140 244 140 250 0 5 3 10 8 12 4 2 16 21 28
43 20 38 104 186 131 230 7 11 17 29 22 40 6 11 24 43 40 70 16 28 54 93 83
145 29 52 57 103 63 112 12 20 94 162 115 200 8 15 39 68 68 119 28 50 52 96
52 100 0 5 5 9 10 9 6 0 10 4 10 9 0 4 77 143 171 307 94 164 182 317 194 339
12 22 57 101 100 175 43 74 87 151 97 170 11 19 27 49 36 65 22 38 134 233
227 395 139 241 334 585 340 601 5 14 -173 16 -1995 16 -1662 0 -2000 -3
-2000 -14z"/>
<path d="M7675 5746 c-59 -105 -113 -194 -119 -198 -6 -4 -8 -8 -4 -8 3 0 -22
-50 -58 -111 -35 -60 -77 -133 -93 -162 -16 -29 -70 -123 -119 -209 -50 -86
-87 -159 -84 -162 3 -3 1 -6 -5 -6 -5 0 -22 -24 -38 -52 -15 -29 -49 -89 -75
-133 -25 -44 -49 -87 -53 -95 -4 -8 -18 -33 -32 -55 -14 -22 -32 -55 -41 -72
-9 -18 -20 -33 -23 -33 -4 0 -8 -6 -8 -12 0 -7 -19 -43 -41 -81 -23 -37 -42
-72 -42 -77 0 -6 -5 -10 -11 -10 -5 0 -8 -4 -5 -9 3 -5 -1 -14 -9 -21 -8 -7
-15 -16 -15 -20 0 -5 -20 -42 -45 -84 -24 -42 -41 -76 -37 -76 4 0 2 -4 -4 -8
-7 -4 -21 -24 -33 -44 -86 -153 -226 -398 -250 -438 -11 -19 -24 -42 -28 -50
-4 -8 -26 -48 -50 -88 -24 -40 -43 -77 -43 -82 0 -6 -4 -10 -10 -10 -5 0 -10
-5 -10 -10 0 -6 -38 -76 -85 -156 -47 -81 -85 -148 -85 -150 0 -3 -10 -21 -23
-42 -13 -20 -37 -62 -54 -92 -43 -79 -57 -104 -63 -110 -3 -3 -13 -21 -23 -40
-9 -19 -26 -50 -38 -69 -32 -53 -220 -382 -243 -426 -11 -22 -24 -41 -28 -43
-5 -2 -8 -9 -8 -15 0 -6 -8 -19 -17 -29 -17 -19 -15 -19 57 -13 41 4 93 8 115
11 22 2 58 6 80 8 22 2 63 6 90 10 59 7 146 16 195 21 19 1 59 6 88 9 54 6
106 12 207 22 33 3 74 7 90 10 17 2 59 6 95 9 36 4 76 8 90 10 14 2 57 7 95
11 95 9 112 11 173 18 28 4 78 9 110 11 31 2 57 5 57 5 0 1 18 3 40 6 22 2 63
6 90 9 76 9 125 14 185 19 30 3 77 8 105 12 27 3 66 7 85 9 19 2 64 6 100 10
36 4 79 9 95 11 17 1 63 6 102 9 40 3 83 8 95 11 13 2 52 7 88 10 36 4 76 8
90 9 14 2 50 6 80 9 30 3 75 8 100 11 25 3 68 7 95 10 28 3 71 8 95 10 25 3
72 8 105 11 94 8 99 9 113 17 7 5 12 3 12 -3 0 -6 4 -9 9 -6 10 7 68 14 246
32 39 3 84 8 100 10 17 2 55 6 85 9 30 3 71 7 90 10 19 2 60 7 90 10 120 13
147 15 185 20 22 2 65 7 95 10 118 11 176 65 174 164 -1 54 -5 62 -94 196 -52
77 -97 142 -102 143 -4 2 -8 8 -8 14 0 5 -27 47 -60 94 -33 46 -60 88 -60 92
-1 4 -14 23 -30 42 -17 19 -30 38 -30 42 0 4 -7 16 -15 25 -8 10 -51 72 -95
138 -45 66 -129 191 -188 278 -59 87 -114 168 -122 181 -57 89 -226 335 -243
354 -11 12 -17 22 -13 22 4 0 -2 10 -14 22 -11 12 -20 26 -20 31 0 4 -6 15
-12 22 -30 33 -38 45 -38 55 0 5 -3 10 -8 10 -4 0 -16 16 -26 35 -11 19 -23
35 -28 35 -4 0 -8 5 -8 11 0 6 -11 25 -25 43 -14 18 -25 38 -25 44 0 7 -4 12
-9 12 -5 0 -16 15 -25 34 -9 19 -20 36 -24 38 -4 2 -34 44 -66 93 -32 50 -63
92 -68 93 -4 2 -8 8 -8 12 0 7 -115 184 -147 225 -36 47 -113 165 -113 173 0
6 -4 12 -8 14 -8 3 -202 286 -202 294 0 3 -11 17 -25 32 -14 15 -25 30 -25 34
0 4 -27 46 -60 92 -33 47 -60 88 -60 91 0 4 -6 12 -13 19 -10 11 -33 -22 -122
-178z"/>
<path d="M2405 5864 c-22 -36 -45 -71 -52 -78 -6 -7 -45 -62 -85 -122 -40 -60
-77 -112 -83 -116 -6 -5 -6 -8 0 -8 6 0 6 -3 0 -8 -9 -6 -358 -518 -639 -937
-33 -49 -63 -92 -66 -95 -3 -3 -34 -50 -70 -104 -36 -55 -70 -105 -77 -112 -7
-6 -14 -18 -15 -25 -2 -8 -8 -19 -15 -26 -7 -8 -38 -53 -70 -101 -32 -48 -61
-91 -66 -97 -29 -38 -87 -127 -87 -135 0 -4 -4 -10 -8 -12 -5 -1 -26 -30 -47
-63 -22 -33 -43 -61 -47 -63 -5 -2 -8 -7 -8 -12 0 -7 -127 -199 -139 -210 -4
-3 -12 -17 -20 -32 -8 -16 -18 -28 -23 -28 -4 0 -8 -4 -8 -9 0 -8 -78 -129
-107 -166 -4 -5 -41 -59 -80 -120 -40 -60 -79 -117 -86 -125 -7 -8 -22 -28
-32 -45 -11 -16 -24 -37 -30 -45 -5 -9 -19 -31 -30 -49 -11 -18 -28 -42 -39
-54 -104 -120 -43 -279 113 -293 129 -12 151 -14 182 -18 30 -4 59 -7 189 -21
19 -2 62 -7 95 -10 33 -4 76 -8 95 -10 19 -2 64 -7 100 -11 36 -4 84 -7 107
-8 24 -1 43 -4 43 -7 0 -3 10 -5 23 -4 12 1 32 -2 45 -6 17 -7 21 -6 16 3 -5
7 -3 8 6 3 13 -8 29 -10 135 -19 33 -3 74 -8 90 -10 17 -2 60 -7 97 -11 37 -3
75 -7 85 -9 10 -2 54 -7 98 -11 44 -4 94 -8 110 -10 17 -2 57 -6 89 -10 33 -3
71 -7 85 -10 14 -2 55 -7 91 -10 36 -3 81 -7 100 -10 19 -3 62 -7 95 -10 59
-5 87 -8 195 -21 30 -3 73 -8 95 -9 22 -2 58 -6 80 -9 22 -2 67 -7 100 -11 33
-3 80 -8 105 -11 25 -3 68 -7 95 -10 92 -8 230 -23 285 -30 38 -4 94 -10 180
-19 30 -2 64 -7 75 -9 11 -2 56 -7 100 -10 44 -4 94 -9 110 -12 17 -2 59 -6
95 -10 99 -9 131 -12 176 -18 23 -3 73 -8 110 -11 38 -3 80 -8 94 -10 14 -2
50 -6 80 -9 30 -3 83 -8 118 -12 34 -3 62 -3 62 0 0 4 -79 144 -175 312 -96
168 -175 310 -175 315 0 5 -4 9 -9 9 -5 0 -11 6 -13 13 -2 8 -113 206 -248
441 -135 234 -256 448 -270 474 -14 26 -28 49 -32 50 -5 2 -8 9 -8 17 0 7 -7
18 -15 25 -9 7 -13 15 -11 18 3 3 -3 17 -13 31 -26 36 -80 130 -94 164 -6 15
-15 27 -19 27 -4 0 -8 4 -8 10 0 5 -23 49 -52 97 -29 48 -51 91 -50 96 1 4 -2
7 -6 7 -5 0 -14 16 -22 35 -8 19 -17 35 -22 35 -4 0 -8 4 -8 10 0 5 -22 47
-50 94 -27 47 -50 89 -50 95 0 6 -4 11 -9 11 -5 0 -14 14 -21 31 -7 17 -24 46
-36 65 -13 19 -21 34 -18 34 3 0 -4 12 -15 26 -12 15 -21 33 -21 40 0 8 -3 14
-7 14 -5 0 -19 23 -32 50 -14 28 -29 50 -33 50 -4 0 -8 5 -8 10 0 6 -19 43
-41 83 -23 40 -48 84 -56 99 -8 15 -19 30 -24 33 -5 4 -7 11 -4 16 4 5 1 9 -4
9 -6 0 -11 7 -11 15 0 8 -5 15 -12 15 -6 0 -9 3 -5 6 3 3 -14 39 -39 79 -24
40 -44 78 -44 84 0 6 -3 11 -7 11 -5 0 -13 10 -19 23 -21 43 -77 142 -96 169
-10 14 -18 29 -18 32 0 3 -22 43 -49 88 -27 46 -58 100 -70 121 -11 20 -29 52
-40 70 -10 17 -30 52 -43 77 -14 24 -30 45 -34 47 -5 2 -27 -27 -49 -63z"/>
<path d="M9477 1934 c-1 -1 -29 -5 -62 -8 -33 -3 -78 -8 -100 -11 -22 -3 -67
-7 -100 -10 -33 -2 -60 -5 -60 -6 0 -1 -11 -3 -25 -4 -14 -1 -54 -5 -90 -9
-36 -3 -83 -8 -105 -12 -22 -3 -62 -7 -90 -9 -27 -2 -50 -5 -50 -5 0 -1 -13
-3 -30 -4 -16 -2 -55 -6 -85 -10 -30 -3 -77 -9 -105 -11 -27 -3 -69 -7 -92
-10 -24 -3 -64 -7 -90 -10 -27 -3 -68 -8 -93 -11 -25 -3 -65 -7 -90 -10 -56
-5 -124 -13 -170 -19 -19 -3 -60 -7 -90 -10 -30 -2 -73 -7 -95 -9 -22 -3 -65
-8 -95 -11 -30 -2 -75 -7 -100 -10 -25 -3 -63 -7 -85 -10 -104 -10 -162 -17
-185 -21 -14 -2 -54 -6 -90 -9 -36 -4 -78 -8 -95 -10 -16 -2 -52 -6 -80 -9
-27 -3 -75 -8 -105 -12 -99 -11 -124 -14 -178 -19 -30 -2 -68 -7 -85 -10 -18
-3 -54 -7 -82 -9 -27 -3 -70 -7 -95 -11 -25 -3 -70 -8 -100 -11 -30 -2 -71 -6
-90 -9 -19 -2 -62 -6 -95 -9 -33 -3 -76 -8 -95 -11 -45 -6 -135 -16 -185 -20
-22 -2 -58 -6 -80 -9 -22 -3 -65 -8 -95 -11 -101 -10 -155 -16 -185 -20 -16
-2 -57 -7 -90 -10 -67 -7 -118 -15 -122 -19 -4 -3 -4 -28 -3 -166 1 -63 1
-119 0 -125 -1 -5 -1 -14 0 -20 2 -12 2 -128 -1 -141 -1 -5 -1 -13 0 -19 2
-10 2 -93 0 -183 0 -24 2 -46 4 -49 3 -2 1 -18 -3 -34 -5 -16 -6 -29 -2 -29 4
0 6 -19 5 -42 -5 -79 -5 -130 0 -135 3 -2 1 -18 -3 -34 -5 -16 -6 -29 -2 -29
8 0 6 -224 -1 -244 -3 -8 -3 -17 0 -20 3 -3 7 -23 7 -43 4 -83 57 -141 139
-150 34 -4 60 2 118 27 41 18 88 37 105 44 18 6 38 17 45 23 8 6 25 14 39 18
13 4 71 30 128 56 57 27 105 49 107 49 3 0 155 68 300 135 111 51 301 135 315
140 3 1 36 16 73 33 38 18 73 32 78 32 5 0 9 5 9 10 0 6 3 9 8 8 8 -1 47 14
102 40 19 9 37 17 40 17 3 1 40 18 83 38 42 20 79 37 82 37 2 0 41 18 87 39
46 21 146 67 223 101 77 34 172 77 210 95 39 18 86 39 105 48 19 8 67 30 105
47 71 32 116 52 125 55 3 1 30 13 60 27 30 14 78 36 105 48 57 26 158 72 225
102 85 39 135 61 140 63 3 1 23 10 45 20 22 10 42 19 45 20 3 1 28 12 55 25
28 12 70 31 95 42 25 11 83 38 130 60 47 22 90 41 96 42 7 1 18 7 25 13 8 6
19 12 24 13 6 1 30 11 55 22 393 178 408 185 420 207 19 37 1 96 -33 108 -21
7 -75 12 -80 7z"/>
<path d="M664 1910 c-21 -8 -32 -27 -40 -66 -6 -34 42 -68 201 -139 83 -37
173 -77 200 -90 28 -12 142 -64 255 -115 113 -51 234 -106 270 -123 36 -16 70
-31 75 -32 6 -2 46 -20 90 -41 44 -21 83 -37 88 -36 4 1 7 -3 7 -10 0 -6 3 -9
6 -6 3 3 49 -14 102 -39 97 -45 147 -67 212 -96 19 -8 76 -34 125 -57 50 -23
104 -48 120 -55 69 -29 310 -138 385 -173 19 -9 37 -17 40 -17 3 -1 30 -13 60
-27 30 -14 118 -54 195 -88 77 -34 178 -80 225 -102 82 -38 114 -52 135 -59 6
-1 45 -20 87 -41 43 -21 80 -38 83 -38 3 0 49 -20 102 -45 52 -25 97 -45 99
-45 2 0 34 -14 71 -31 95 -44 160 -73 218 -99 28 -12 77 -34 110 -49 33 -16
89 -41 125 -57 36 -15 68 -33 72 -39 4 -5 8 -7 8 -3 0 4 44 -14 98 -39 121
-56 174 -64 222 -31 19 13 44 41 54 62 18 37 19 70 18 695 0 361 -1 665 -1
677 -1 14 -8 20 -23 21 -46 2 -155 13 -223 23 -38 5 -97 12 -130 15 -33 2 -71
7 -85 9 -14 2 -54 7 -90 10 -36 4 -83 9 -105 11 -22 3 -62 8 -90 11 -27 3 -70
7 -95 10 -25 3 -63 7 -85 9 -22 2 -40 4 -40 5 0 1 -20 3 -45 5 -47 4 -118 12
-185 20 -22 2 -65 7 -95 10 -30 2 -75 7 -100 10 -66 8 -124 14 -175 20 -25 3
-66 8 -92 11 -27 3 -68 8 -93 10 -25 2 -63 6 -85 8 -40 5 -123 14 -200 22
-115 12 -200 22 -200 24 0 0 -25 3 -55 5 -30 3 -73 7 -95 10 -22 2 -71 7 -110
10 -65 6 -110 12 -110 15 0 1 -25 3 -55 5 -30 2 -71 6 -90 8 -77 11 -156 20
-182 20 -16 1 -28 3 -28 6 0 3 -19 6 -43 7 -40 1 -148 10 -212 19 -16 3 -55 7
-85 10 -30 2 -64 7 -75 9 -11 2 -56 7 -100 11 -44 4 -96 9 -115 11 -19 3 -55
7 -80 9 -25 3 -65 7 -90 10 -109 12 -147 16 -185 20 -101 11 -152 12 -171 5z"/>
</g>
</svg>
