<svg width="512" height="512" viewBox="0 0 512 512" fill="none" xmlns="http://www.w3.org/2000/svg">
<path d="M20.04 317.3C18 317.3 16 315.8 16 313.3V150.5C16 148.149 17.91 146.488 20.001 146.488C20.6892 146.488 21.397 146.668 22.063 147.063L98.683 192.163L23.403 314.463C22.59 316.8 21.31 317.3 20.04 317.3ZM231.4 405.2L23.2 383.14C18.93 382.658 16.077 379.023 16.077 375.145C16.077 373.744 16.4495 372.311 17.262 370.984L122.7 215.1L231.4 405.2ZM31.1 420.1C31.1 418.061 32.608 416.032 35.03 416.032C35.1954 416.032 35.3651 416.041 35.5389 416.061L239.139 438.371V504.031C239.1 508.6 236.2 512 232 512C230.887 512 229.745 511.761 228.637 511.243L34.25 423.6C32.69 422.8 31.1 421.4 31.1 420.1ZM33.94 117.1C32.651 116.336 32.002 115.012 32.002 113.683C32.002 112.402 32.6039 111.116 33.815 110.319L184.615 11.729C185.1 10.98 187.3 10.64 188.6 10.64C192.92 10.64 196.603 14.361 196.603 18.662C196.603 20.041 196.224 21.48 195.366 22.876L115.5 165.8L33.94 117.1ZM146.8 175.1L242.39 6.7C245.5 2.53 250.7 0 255.1 0C259.5 0 265.6 2.53 268.72 7.624L364.31 176.024H146.8V175.1ZM356.4 207.1L256 382.8L155.6 207.1H356.4ZM476.1 415.1C478.522 415.1 480.03 417.129 480.03 419.168C480.03 420.546 479.341 421.929 477.778 422.692L283.378 510.352C282.275 510.861 281.137 511.096 280.028 511.096C275.828 511.096 272.034 507.725 272.034 503.102V437.412L475.634 415.132C475.7 416 475.9 415.1 476.1 415.1ZM494.8 370.9C495.6 372.3 496 373.7 496 375.1C496 378.972 493.159 382.599 488.872 383.08L280.672 405.14L389.272 215.04L494.8 370.9ZM316.6 22.87C315.742 21.475 315.363 20.036 315.363 18.656C315.363 14.355 319.046 10.634 323.366 10.634C324.674 10.634 326.041 10.9751 327.381 11.744L478.181 110.334C479.392 111.131 479.994 112.41 479.994 113.687C479.994 115.012 479.345 116.336 478.056 117.116L396.5 165.8L316.6 22.87ZM491.1 146.5C493.191 146.5 495.101 148.161 495.101 150.512V313.312C495.101 315.795 493.085 317.318 491.048 317.318C489.778 317.318 488.499 316.726 487.695 315.406L412.415 193.106L489.035 148.006C490.6 146.7 491.3 146.5 491.1 146.5Z" fill="url(#paint0_radial_3_9)"/>
<defs>
<radialGradient id="paint0_radial_3_9" cx="0" cy="0" r="1" gradientUnits="userSpaceOnUse" gradientTransform="translate(256 256) rotate(90) scale(256 240)">
<stop stop-color="#EE5873"/>
<stop offset="1" stop-color="#5778A3"/>
</radialGradient>
</defs>
</svg>
